<svg id="Layer_1" data-name="Layer 1" xmlns="http://www.w3.org/2000/svg" viewBox="0 0 1086.36 601.54"><defs><style>.cls-1{fill:#fd5f3a;}</style></defs><path class="cls-1" d="M410.63,525.36v-.2c0-19.8,14.81-36.2,35.41-36.2,12.7,0,20.3,4.5,27.3,11.1l-5.4,5.8c-5.9-5.6-12.5-9.6-22-9.6-15.5,0-27.11,12.6-27.11,28.7v.2c0,16.21,11.71,28.91,27.11,28.91,9.6,0,15.9-3.7,22.6-10.11l5.2,5.11c-7.3,7.4-15.3,12.3-28,12.3C425.53,561.37,410.63,545.46,410.63,525.36Z" transform="translate(-410.63 -225.47)"/><path class="cls-1" d="M476.94,525.36v-.2c0-19.3,14.5-36.2,35.81-36.2s35.6,16.7,35.6,36v.2c0,19.3-14.5,36.21-35.8,36.21S476.94,544.67,476.94,525.36Zm63.21,0v-.2c0-15.9-11.6-28.9-27.6-28.9s-27.41,12.8-27.41,28.7v.2c0,15.9,11.6,28.91,27.61,28.91S540.15,541.26,540.15,525.36Z" transform="translate(-410.63 -225.47)"/><path class="cls-1" d="M562.06,490.16h8l25.5,48.2,25.51-48.2h8v70h-7.9V503.46L595.66,551h-.4l-25.5-47.4v56.61h-7.7Z" transform="translate(-410.63 -225.47)"/><path class="cls-1" d="M650.37,490.16h8l25.5,48.2,25.51-48.2h8v70h-7.9V503.46L684,551h-.4l-25.5-47.4v56.61h-7.7Z" transform="translate(-410.63 -225.47)"/><path class="cls-1" d="M736.92,530.86v-40.7h7.9v40.2c0,15.1,8.1,23.61,21.4,23.61,12.9,0,21.11-7.8,21.11-23.11v-40.7h7.9v40.1c0,20.41-11.71,31-29.21,31C748.72,561.27,736.92,550.67,736.92,530.86Z" transform="translate(-410.63 -225.47)"/><path class="cls-1" d="M812.71,490.16h7.4l44.1,56.11V490.16h7.7v70h-6.3l-45.2-57.41v57.41h-7.7Z" transform="translate(-410.63 -225.47)"/><path class="cls-1" d="M891.45,490.16h7.9v70h-7.9Z" transform="translate(-410.63 -225.47)"/><path class="cls-1" d="M913.46,550l4.9-5.79c7.3,6.6,14.3,9.9,24,9.9,9.4,0,15.6-5,15.6-11.9V542c0-6.5-3.5-10.2-18.2-13.3-16.1-3.5-23.5-8.7-23.5-20.2v-.2c0-11,9.7-19.1,23-19.1,10.2,0,17.5,2.9,24.6,8.6l-4.6,6.1c-6.5-5.3-13-7.6-20.2-7.6-9.1,0-14.9,5-14.9,11.3v.2c0,6.6,3.6,10.3,19,13.6,15.6,3.4,22.8,9.1,22.8,19.81v.2c0,12-10,19.8-23.9,19.8C931,561.17,921.86,557.47,913.46,550Z" transform="translate(-410.63 -225.47)"/><path class="cls-1" d="M995,497.46h-23.5v-7.3h55v7.3H1003v62.71h-8Z" transform="translate(-410.63 -225.47)"/><path class="cls-1" d="M1057.36,525.36v-.2c0-19.8,14.8-36.2,35.4-36.2,12.7,0,20.3,4.5,27.3,11.1l-5.4,5.8c-5.9-5.6-12.5-9.6-22-9.6-15.5,0-27.1,12.6-27.1,28.7v.2c0,16.21,11.7,28.91,27.1,28.91,9.6,0,15.9-3.7,22.6-10.11l5.2,5.11c-7.3,7.4-15.3,12.3-28,12.3C1072.26,561.37,1057.36,545.46,1057.36,525.36Z" transform="translate(-410.63 -225.47)"/><path class="cls-1" d="M1125.67,525.36v-.2c0-19.3,14.5-36.2,35.8-36.2s35.6,16.7,35.6,36v.2c0,19.3-14.5,36.21-35.8,36.21S1125.67,544.67,1125.67,525.36Zm63.2,0v-.2c0-15.9-11.6-28.9-27.6-28.9s-27.4,12.8-27.4,28.7v.2c0,15.9,11.6,28.91,27.6,28.91S1188.87,541.26,1188.87,525.36Z" transform="translate(-410.63 -225.47)"/><path class="cls-1" d="M1209.58,530.86v-40.7h7.9v40.2c0,15.1,8.1,23.61,21.4,23.61,12.9,0,21.1-7.8,21.1-23.11v-40.7h7.9v40.1c0,20.41-11.7,31-29.2,31C1221.38,561.27,1209.58,550.67,1209.58,530.86Z" transform="translate(-410.63 -225.47)"/><path class="cls-1" d="M1278.24,550l4.9-5.79c7.3,6.6,14.31,9.9,24,9.9,9.4,0,15.6-5,15.6-11.9V542c0-6.5-3.5-10.2-18.21-13.3-16.1-3.5-23.5-8.7-23.5-20.2v-.2c0-11,9.7-19.1,23-19.1,10.21,0,17.51,2.9,24.61,8.6l-4.6,6.1c-6.5-5.3-13-7.6-20.2-7.6-9.1,0-14.91,5-14.91,11.3v.2c0,6.6,3.6,10.3,19,13.6,15.6,3.4,22.8,9.1,22.8,19.81v.2c0,12-10,19.8-23.9,19.8C1295.75,561.17,1286.64,557.47,1278.24,550Z" transform="translate(-410.63 -225.47)"/><path class="cls-1" d="M1344.16,490.16h7.9v70h-7.9Z" transform="translate(-410.63 -225.47)"/><path class="cls-1" d="M1369.43,490.16h7.4l44.11,56.11V490.16h7.7v70h-6.3l-45.21-57.41v57.41h-7.7Z" transform="translate(-410.63 -225.47)"/><path class="cls-1" d="M1445.89,490.16h50.61v7.2h-42.71v23.9H1492v7.2h-38.21V553H1497v7.2h-51.11Z" transform="translate(-410.63 -225.47)"/><path class="cls-1" d="M476.94,477.34S502.5,269.5,705.5,277.5c94,8,145,62,160,105l48-25.67s-58.7-129.59-210-131.33c-43.5-.5-76.85,6.42-105.8,15.5-49.56,15.54-82.72,41.29-110.4,75.08a315.79,315.79,0,0,0-55.95,103.7c-13.49,42-13,57.56-13,57.56Z" transform="translate(-410.63 -225.47)"/><path class="cls-1" d="M419.5,575.5h56.05s38.95,202,223,198c100-6,156-55,178-108-1,2,47,25,47,25S881,811,705.5,826.5C602,834,453.5,760.5,419.5,575.5Z" transform="translate(-410.63 -225.47)"/><path class="cls-1" d="M1044.94,477.34S1070.5,269.5,1273.5,277.5c94,8,145,62,160,105l48-25.67s-58.7-129.59-210-131.33c-43.5-.5-76.85,6.42-105.8,15.5-49.56,15.54-82.72,41.29-110.4,75.08a315.79,315.79,0,0,0-55.95,103.7c-13.49,42-13,57.56-13,57.56Z" transform="translate(-410.63 -225.47)"/><path class="cls-1" d="M987.5,575.5h56s39,202,223,198c100-6,156-55,178-108-1,2,47,25,47,25s-42.5,120.5-218,136C1170,834,1021.5,760.5,987.5,575.5Z" transform="translate(-410.63 -225.47)"/></svg>